<?xml version="1.0" encoding="utf-8"?>
<!-- Generator: Adobe Illustrator 19.1.0, SVG Export Plug-In . SVG Version: 6.00 Build 0)  -->
<svg version="1.1" id="Layer_1" xmlns="http://www.w3.org/2000/svg" xmlns:xlink="http://www.w3.org/1999/xlink" x="0px" y="0px"
	 viewBox="-230 322 150 150" style="enable-background:new -230 322 150 150;" xml:space="preserve">
<style type="text/css">
	.st0{fill:none;stroke:#F05C22;stroke-width:2;stroke-linecap:round;stroke-linejoin:round;stroke-miterlimit:10;}
</style>
<path class="st0" d="M-143.3,338h-60.3c-5.4,0-9.7,4.3-9.7,9.7v27.7c0,5.4,4.3,9.7,9.7,9.7h4.5l-3.6,13.4l22-13.4h37.5
	c5.4,0,9.7-4.3,9.7-9.7v-27.7C-133.6,342.4-137.9,338-143.3,338z"/>
<path class="st0" d="M-157.9,395.5h48.7c5.4,0,9.7,4.3,9.7,9.7v27.7c0,5.4-4.3,9.7-9.7,9.7h-4.5l3.6,13.4l-22-13.4h-25.8
	c-5.4,0-9.7-4.3-9.7-9.7v-27.7C-167.6,399.8-163.2,395.5-157.9,395.5z"/>
</svg>
