<?xml version="1.0" encoding="utf-8"?>
<!-- Generator: Adobe Illustrator 15.1.0, SVG Export Plug-In . SVG Version: 6.00 Build 0)  -->
<!DOCTYPE svg PUBLIC "-//W3C//DTD SVG 1.1//EN" "http://www.w3.org/Graphics/SVG/1.1/DTD/svg11.dtd">
<svg version="1.1" id="Capa_1" xmlns="http://www.w3.org/2000/svg" xmlns:xlink="http://www.w3.org/1999/xlink" x="0px" y="0px"
	 width="25px" height="25px" viewBox="0 0 25 25" enable-background="new 0 0 25 25" xml:space="preserve">
<path display="none" fill="#FFFFFF" d="M24.176,0.824C23.627,0.274,22.955,0,22.159,0H2.841C2.045,0,1.373,0.274,0.824,0.824
	S0,2.045,0,2.841v19.318c0,0.796,0.274,1.468,0.824,2.017C1.373,24.726,2.045,25,2.841,25h19.318c0.796,0,1.468-0.274,2.017-0.824
	C24.726,23.627,25,22.955,25,22.159V2.841C25,2.045,24.726,1.373,24.176,0.824z"/>
<path fill="#FF6A00" d="M16.164,12.202c-1.457,1.96-2.65,4.133-3.579,6.52l-1.165,2.954l-2.045-2.5
	c-0.417-0.512-0.876-1.013-1.378-1.506c-0.502-0.492-0.933-0.899-1.292-1.221c-0.36-0.322-0.867-0.763-1.52-1.321
	s-1.16-1.009-1.52-1.35l1.846-3.153c0.247,0.208,0.715,0.62,1.406,1.236c0.691,0.615,1.312,1.169,1.861,1.662
	c0.549,0.493,1.051,0.947,1.506,1.364c1.022-1.989,2.325-3.878,3.906-5.668c1.581-1.79,3.479-3.717,5.696-5.781l1.704,2.841
	C19.432,8.267,17.623,10.242,16.164,12.202z"/>
</svg>
