<?xml version="1.0" encoding="utf-8"?>
<!-- Generator: Adobe Illustrator 15.1.0, SVG Export Plug-In . SVG Version: 6.00 Build 0)  -->
<!DOCTYPE svg PUBLIC "-//W3C//DTD SVG 1.1//EN" "http://www.w3.org/Graphics/SVG/1.1/DTD/svg11.dtd">
<svg version="1.1" id="Layer_1" xmlns="http://www.w3.org/2000/svg" xmlns:xlink="http://www.w3.org/1999/xlink" x="0px" y="0px"
	 width="25px" height="25px" viewBox="0 0 25 25" enable-background="new 0 0 25 25" xml:space="preserve">
<g>
	<path fill="#FF0000" d="M18.452,8.631L14.583,12.5l3.869,3.868c0.574,0.575,0.574,1.509,0,2.084
		c-0.287,0.287-0.665,0.431-1.042,0.431c-0.376,0-0.754-0.144-1.041-0.431L12.5,14.583l-3.869,3.869
		c-0.288,0.287-0.665,0.431-1.042,0.431s-0.753-0.144-1.041-0.431c-0.576-0.575-0.576-1.509,0-2.084l3.868-3.868L6.549,8.631
		c-0.575-0.575-0.575-1.508,0-2.083c0.575-0.575,1.507-0.575,2.083,0l3.869,3.869l3.869-3.869c0.575-0.575,1.508-0.575,2.083,0
		C19.026,7.124,19.026,8.056,18.452,8.631z"/>
</g>
</svg>
