<?xml version="1.0" encoding="utf-8"?>
<!-- Generator: Adobe Illustrator 19.1.0, SVG Export Plug-In . SVG Version: 6.00 Build 0)  -->
<svg version="1.1" id="Layer_1" xmlns="http://www.w3.org/2000/svg" xmlns:xlink="http://www.w3.org/1999/xlink" x="0px" y="0px"
	 viewBox="-230 322 150 150" style="enable-background:new -230 322 150 150;" xml:space="preserve">
<style type="text/css">
	.st0{fill:none;stroke:#F05B22;stroke-width:1.75;stroke-linejoin:round;stroke-miterlimit:10;}
</style>
<g>
	<path class="st0" d="M-210,449.6"/>
	<g>
		<path class="st0" d="M-154,357.3v74.8h-55.9v-74.8C-209.9,357.3-182.7,335.8-154,357.3z"/>
		<path class="st0" d="M-209.9,432.1c0,0,27.3-21.5,55.9,0"/>
		<path class="st0" d="M-154,357.3v74.8h55.9v-74.8C-98.1,357.3-125.3,335.8-154,357.3z"/>
		<path class="st0" d="M-98.1,432.1c0,0-27.3-21.5-55.9,0"/>
	</g>
	<g>
		<polyline class="st0" points="-155.6,432.1 -160.8,438.2 -220,438.2 -220,358.2 -210,358.2 		"/>
		<polyline class="st0" points="-152.4,432.1 -147.2,438.2 -88,438.2 -88,358.2 -98,358.2 		"/>
	</g>
	<polygon class="st0" points="-180.4,414 -186.1,404 -180.4,394 -168.8,394 -163,404 -168.8,414 	"/>
	<circle class="st0" cx="-136.6" cy="372.5" r="2.8"/>
	<circle class="st0" cx="-136.6" cy="372.5" r="10"/>
	<polygon class="st0" points="-126.9,395.6 -110.4,369.6 -110.4,395.6 	"/>
	<polygon class="st0" points="-115.4,409.4 -134.9,409.4 -141.8,409.4 -141.8,401.6 -115.4,401.6 	"/>
	<line class="st0" x1="-139" y1="416.9" x2="-135.3" y2="409.4"/>
	<line class="st0" x1="-118.2" y1="416.9" x2="-121.9" y2="409.4"/>
	<polygon class="st0" points="-201.8,393.8 -198.4,387.8 -194.9,393.8 	"/>
	<line class="st0" x1="-198.4" y1="411.7" x2="-198.4" y2="393.8"/>
	<polyline class="st0" points="-201.9,415 -198.4,411.3 -194.7,415 	"/>
	<polyline class="st0" points="-201.9,409.9 -198.4,406.1 -194.7,409.9 	"/>
	<path class="st0" d="M-177.2,368v-3.2H-188v3.2c0,0-6.9,0.9-6.9,8.4c0,7.4,9.8,7.3,12.3,7.3c2.5,0,12.3,0.1,12.3-7.3
		C-170.4,368.8-177.2,368-177.2,368z"/>
</g>
</svg>
