<?xml version="1.0" encoding="utf-8"?>
<!-- Generator: Adobe Illustrator 15.1.0, SVG Export Plug-In  -->
<!DOCTYPE svg PUBLIC "-//W3C//DTD SVG 1.1//EN" "http://www.w3.org/Graphics/SVG/1.1/DTD/svg11.dtd" [
	<!ENTITY ns_flows "http://ns.adobe.com/Flows/1.0/">
]>
<svg version="1.1"
	 xmlns="http://www.w3.org/2000/svg" xmlns:xlink="http://www.w3.org/1999/xlink" xmlns:a="http://ns.adobe.com/AdobeSVGViewerExtensions/3.0/"
	 x="0px" y="0px" width="512px" height="512px" viewBox="0.001 -2.398 512 512" enable-background="new 0.001 -2.398 512 512"
	 xml:space="preserve">
<defs>
</defs>
<path fill="#0290D8" d="M256.001,268.729c63.397,0,114.797-60.157,114.797-134.365C370.798,31.458,319.401,0,256.001,0
	c-63.402,0-114.797,31.458-114.797,134.364C141.206,208.571,192.601,268.729,256.001,268.729z"/>
<path fill="#0290D8" d="M509.497,466.496L451.58,336.029c-2.649-5.971-7.303-10.922-13.095-13.938l-89.884-46.789
	c-1.981-1.03-4.382-0.83-6.164,0.519c-25.422,19.228-55.312,29.392-86.437,29.392c-31.129,0-61.017-10.164-86.438-29.392
	c-1.787-1.349-4.188-1.549-6.17-0.519l-89.876,46.789c-5.795,3.016-10.444,7.965-13.096,13.938L2.505,466.496
	c-3.993,8.995-3.175,19.286,2.189,27.536c5.362,8.248,14.437,13.171,24.276,13.171h454.058c9.84,0,18.916-4.925,24.278-13.173
	S513.489,475.487,509.497,466.496z"/>
</svg>
