<?xml version="1.0" encoding="utf-8"?>
<!-- Generator: Adobe Illustrator 19.1.0, SVG Export Plug-In . SVG Version: 6.00 Build 0)  -->
<svg version="1.1" id="Layer_1" xmlns="http://www.w3.org/2000/svg" xmlns:xlink="http://www.w3.org/1999/xlink" x="0px" y="0px"
	 viewBox="-230 322 150 150" style="enable-background:new -230 322 150 150;" xml:space="preserve">
<style type="text/css">
	.st0{fill:none;stroke:#F05C22;stroke-width:1.75;stroke-linecap:round;stroke-linejoin:round;stroke-miterlimit:10;}
	.st1{fill:#FFFFFF;stroke:#F05C22;stroke-width:1.75;stroke-linecap:round;stroke-linejoin:round;stroke-miterlimit:10;}
	.st2{fill:#F05C22;}
</style>
<g>
	<path class="st0" d="M-130.8,351.7l14.2,0.1c4.6,0,8.3,4,8.3,8.9v90c0,4.9-3.7,8.9-8.3,8.9h-76.8c-4.6,0-8.3-4-8.3-8.9v-90
		c0-4.9,3.7-8.9,9.4-8.9l13.2-0.1"/>
	<polyline class="st0" points="-130,355.6 -117.3,355.6 -117.3,453.2 -192.7,453.2 -192.7,355.6 -179.6,355.6 	"/>
	<path class="st0" d="M-145.4,344.8c0,0,0.6-9-9.6-9s-9.6,9-9.6,9c-17-0.4-15,12.9-15,12.9h24.6h24.6
		C-130.4,357.8-128,343.9-145.4,344.8z"/>
	<circle class="st0" cx="-155" cy="342.6" r="1.8"/>
	<polyline class="st0" points="-152.1,424 -139.3,431.8 -126.5,424 	"/>
	<path class="st0" d="M-127.4,423.5h-23.8c-0.6,0-1.1,0.5-1.1,1.1V439c0,0.6,0.5,1.1,1.1,1.1h15.1c0,0,3.8,3.7,4.5,3.7
		s0.9-3.7,0.9-3.7h3.2c0.6,0,1.1-0.5,1.1-1.1v-14.3C-126.3,424-126.8,423.5-127.4,423.5z"/>
	<rect x="-184.2" y="398.7" class="st0" width="57.4" height="10.5"/>
	<line class="st0" x1="-180.6" y1="405.3" x2="-180.6" y2="409.3"/>
	<line class="st0" x1="-173.5" y1="405.3" x2="-173.5" y2="409"/>
	<line class="st0" x1="-166.3" y1="405.3" x2="-166.3" y2="409.3"/>
	<line class="st0" x1="-159.2" y1="405.3" x2="-159.2" y2="409.3"/>
	<line class="st0" x1="-152" y1="405.3" x2="-152" y2="409"/>
	<line class="st0" x1="-144.9" y1="405.3" x2="-144.9" y2="409"/>
	<line class="st0" x1="-137.7" y1="405.3" x2="-137.7" y2="409.3"/>
	<line class="st0" x1="-130.6" y1="405.3" x2="-130.6" y2="409.3"/>
	<rect x="-145.6" y="370.3" class="st0" width="17.7" height="17.9"/>
	<line class="st0" x1="-136.8" y1="388" x2="-136.8" y2="370.3"/>
	<line class="st0" x1="-145.5" y1="379.4" x2="-128" y2="379.4"/>
	<polyline class="st0" points="-184.1,367 -184.1,388.1 -154,388.2 	"/>
	<rect x="-162" y="378.7" class="st0" width="6.4" height="9.4"/>
	<rect x="-171.4" y="373.3" class="st0" width="6.4" height="14.9"/>
	<rect x="-180.8" y="381.3" class="st0" width="6.4" height="6.9"/>
	<path class="st0" d="M-165.5,417.6c-1.1-0.3-10.1,14.2-10.1,14.2s-4.7,2-5.4,4.6c-0.7,2.6-0.1,5.1,1.9,6.2c2,1,5,0.5,6.6-2.5
		c1.4-2.6,0.7-7.2,0.7-7.2S-164.4,417.8-165.5,417.6z"/>
	<path class="st1" d="M-176.5,418.1c1.1-0.3,10.8,13.6,10.8,13.6s4.8,1.7,5.6,4.3c0.8,2.6,0.4,5.1-1.6,6.2c-2,1.1-5,0.8-6.8-2.1
		c-1.5-2.5-1-7.2-1-7.2S-177.6,418.5-176.5,418.1z"/>
	
		<ellipse transform="matrix(0.942 -0.3357 0.3357 0.942 -156.4698 -29.8747)" class="st0" cx="-164.6" cy="437.6" rx="2.1" ry="2.8"/>
	
		<ellipse transform="matrix(0.8849 0.4658 -0.4658 0.8849 183.3545 132.4503)" class="st0" cx="-176.3" cy="437.2" rx="2.1" ry="2.8"/>
	<circle class="st2" cx="-169" cy="430.3" r="0.5"/>
	<path class="st0" d="M-136.6,370.6c0,0-1.2-7.2,1.4-6.1C-131.9,365.9-136.6,370.6-136.6,370.6z"/>
	<path class="st0" d="M-136.6,370.6c0,0,0.9-7.2-1.7-6.1C-141.6,365.9-136.6,370.6-136.6,370.6z"/>
</g>
</svg>
