<?xml version="1.0" encoding="utf-8"?>
<!-- Generator: Adobe Illustrator 19.1.0, SVG Export Plug-In . SVG Version: 6.00 Build 0)  -->
<svg version="1.1" id="Layer_1" xmlns="http://www.w3.org/2000/svg" xmlns:xlink="http://www.w3.org/1999/xlink" x="0px" y="0px"
	 viewBox="0 0 150 150" style="enable-background:new 0 0 150 150;" xml:space="preserve">
<style type="text/css">
	.st0{fill:none;stroke:#F05B22;stroke-width:1.75;stroke-linecap:round;stroke-linejoin:round;stroke-miterlimit:10;}
	.st1{fill:#F05B22;}
	.st2{fill:none;stroke:#F05B22;stroke-width:2;stroke-linecap:round;stroke-linejoin:round;stroke-miterlimit:10;}
</style>
<g>
	<line class="st0" x1="137" y1="86.1" x2="137" y2="94.4"/>
	<polygon class="st0" points="112,100.4 114.9,96.4 124.3,101 121.2,106.7 	"/>
	<polygon class="st0" points="124.3,101 128.4,106.2 140.7,97.9 137.3,94.4 	"/>
	<path class="st0" d="M129.7,74.4c0.2,0.9,0.1,2.1,0.1,2.8c0,1.6-0.2,3.3,0.2,4.9c0.4,1.9,1.8,3.2,3.7,3.7c1.6,0.4,3.5-0.1,4.7-1.2
		c1-0.9,1.6-2.1,2-3.4c1.1-3.5,0-9.1-1.9-12.2c-1.5-2.4-4.4-3.4-7.1-3.8c-2.9-0.4-5.9-0.5-8.8-0.5c-2.9,0-5.8,0.1-8.6,0.6
		c-1.6,0.3-3.3,0.7-4.6,1.6c-1.6,1.1-2.2,3-0.8,4.6c1.9,2,17.5,1.3,19.4,1.5c0.3,0,0.7,0.1,1,0.3C129.3,73.6,129.6,74,129.7,74.4z"
		/>
	<circle class="st1" cx="113.3" cy="76.5" r="0.8"/>
	<path class="st0" d="M103.9,83.5c-3.5-0.5-6.5-2.7-8.9-5.3c-2.6-2.9-4.3-6.5-6.7-9.6c-1.6-2.1-3.6-4.3-6.2-5.1
		c-4.1-1.2-8.5,0.3-11.2,3.6c-3.4,4.4-3.3,11.2,0.2,15.4c2.7,3.3,7.2,5.3,11.4,5.1c5.6-0.3,11.2-1.7,16.5-3
		C100.8,84.4,102.3,83.9,103.9,83.5z"/>
	<path class="st0" d="M103.5,24.7c-0.7,0.3-1.3,0.7-1.9,1.2c-1.3,1.1-2.2,2.5-3.4,3.6c-1.5,1.5-3.1,2.9-5,3.9
		c-2.7,1.4-5.7,1.3-8.6,1.9c-2.5,0.5-4.7,2.1-6.2,4.1c-1.6,2.2-2.8,4.7-4.9,6.4c-1.4,1.1-4.8,2.6-4.8,2.6s2.6,1.1,3.2,1.3
		c4.1,1.3,8.4,1.5,12.6,1.4c2.8-0.1,6.1-0.2,8.5-1.9c0.8-0.6,1.6-1.3,2.5-1.8c3.8-2.2,8.1-2,12.3-2.1c2.8-0.1,5.5-0.6,7.6-2.5
		c2.4-2.1,3.9-5.2,3.5-8.4c-0.2-1.8-1-3.6-2-5.1C114.1,24.9,108.2,22.5,103.5,24.7z"/>
	<path class="st0" d="M46.4,41.1c3.5-1.6,9-0.7,12.3-1.4c1.2-0.2,2.6-0.6,3.4-1.5c1.1-1.2,1.2-3,0.5-4.5c-0.7-1.4-2-2.5-3.4-3.3
		c-4.5-2.5-10-2.4-15.2-1.9c-3.1,0.3-6.2,0.8-8.9,2.1s-5.2,3.7-5.9,6.7c-0.5,2.1-0.2,4.4-1.1,6.4c-1.1,2.5-3.8,3.4-5.8,5
		c-2.5,1.9-3.5,5-3.7,8.1c-0.1,1.9-0.1,3.8-1,5.5c-0.8,1.4-2.3,2.4-3.2,3.8c-0.9,1.3-1.1,3-0.7,4.6c0.4,1.5,1.5,2.8,3,3.5
		c1.2,0.6,2.6,0.8,4,1c3.1,0.3,6.2,0.5,9.3,0.5c1.7,0,3.5-0.1,5.1-0.7c1.6-0.6,3-1.9,3.4-3.6c0.6-2.6-1.4-5.5-0.3-7.9
		c0.6-1.3,2-2.1,3-3.2c1.5-1.5,2.5-3.5,2.6-5.7c0.2-3-1.2-6-0.8-9C43.4,43.2,44.6,41.9,46.4,41.1z"/>
	<path class="st0" d="M60.2,39.6c-0.1,0.6,0.4,1.2,1.1,1.4c0.6,0.2,1.3,0.2,1.9,0.3c0.6,0.1,1.3,0.5,1.4,1.2
		c0.1,0.7-0.6,1.3-1.2,1.7c-0.6,0.3-1.4,0.6-1.7,1.3c-0.2,0.5-0.2,1-0.2,1.5c0.1,1.1,0.1,2.2,0.2,3.3c0.1,0.9,0.1,2-0.5,2.7
		c-0.5,0.6-1.4,0.8-2.1,1.3C57.3,55.2,57,57,57,59.4c0,2.4,0,6.4,0,6.4"/>
	<circle class="st1" cx="57" cy="42.4" r="0.8"/>
	<line class="st0" x1="42.6" y1="65.8" x2="42.6" y2="73.5"/>
	<line class="st0" x1="48.8" y1="65.8" x2="48.8" y2="73.5"/>
	<line class="st0" x1="54.7" y1="65.8" x2="54.7" y2="73.5"/>
	<path class="st0" d="M38,65.8h20.2c2.1,0,3.8,1.7,3.8,3.8v0c0,2.1-1.7,3.8-3.8,3.8H37.2"/>
	<path class="st0" d="M22.5,118.3c0.8,0,27.7,3,27.7,3v4.8c0,0-22.5-4-27.7-5V118.3z"/>
	<path class="st0" d="M22.6,90.1c-0.4,0.5-0.7,1.1-0.8,1.8c-1,3.8-0.8,8-0.7,11.8h-9.8c-4.4,0.1-4.1,4.4-4.1,4.4
		c0,3.7,4.1,4.2,4.1,4.2h18.2c7.5,0,5.8-14.8,5.8-14.8s14-0.4,17.2-0.9c2.9-0.4,3.7-3.5,3-6c-0.9-3.2-3.9-4-6.8-4.5
		c-4.6-0.8-9.2-0.6-13.8-0.1C30.8,86.4,25.1,86.7,22.6,90.1z"/>
	<line class="st0" x1="23.3" y1="112.3" x2="23.3" y2="117.9"/>
	<path class="st1" d="M50.3,99.7c0,0.5-0.4,0.9-0.9,0.9c-0.5,0-0.9-0.4-0.9-0.9c0-0.5,0.4-0.8,0.9-0.8
		C49.9,98.8,50.3,99.2,50.3,99.7"/>
	<path id="Speech_Bubble_1_2_" class="st2" d="M58.3,108.3c0,0,5.1,1.7,8.1-1.6c3-3.3,5.1-5.8,9.9-5.1c0,0,1.9-6.2,7.7-3.2
		c0,0,3.7-5.7,8.7-0.5c0,0,6.9,0.2,6,6.7c0,0,5.5,4.5-0.8,8.8c0,0-0.9,6.6-7.7,4.9c0,0-1.5,3.5-5.9,1.8c0,0-4.7,4.5-9-2.2
		c0,0-4.7,1.5-8.9-3.9C66.3,114.2,61.8,113.9,58.3,108.3z"/>
	<path class="st0" d="M52.7,97.1c-0.1,1.1,0.2,1.9,0.9,2.7c0.8,0.9,2.2,0.7,3.1,1.5c0.8,0.6,0.8,1.6,0.2,2.3
		c-0.4,0.6-0.9,0.9-1.5,1.2c-0.8,0.4-1.4,0.6-1.4,1.6c-0.1,1.7,0.3,3.4-0.2,5.1c-0.5,1.6-1.7,2.8-3.2,3.5c-1.2,0.6-2.6,0.8-3.9,1.2
		c-0.3,0.1-0.8,0.6-0.8,1.3v3.2"/>
	<path class="st0" d="M110.6,73c0.1,1.1-0.2,1.9-0.9,2.7c-0.8,0.9-2.2,0.7-3.1,1.5c-0.8,0.6-0.8,1.6-0.2,2.3
		c0.4,0.6,0.9,0.9,1.5,1.2c0.8,0.4,1.4,0.6,1.4,1.6c0.1,1.7-0.3,3.4,0.2,5.1c0.5,1.6,1.7,2.8,3.2,3.5c1.2,0.6,2.6,0.8,3.9,1.2
		c0.3,0.1,0.8,0.6,0.8,1.3v3.9"/>
</g>
</svg>
